<svg xmlns="http://www.w3.org/2000/svg" viewBox="0 0 1200 520" role="img" aria-label="Иллюстрация: Cupaj Club">
<defs>
<linearGradient id="bg" x1="0" y1="0" x2="1" y2="1"><stop offset="0" stop-color="#16201c"/><stop offset="1" stop-color="#2f453c"/></linearGradient>
<linearGradient id="glass" x1="0" y1="0" x2="1" y2="0"><stop offset="0" stop-color="#b9d3d8" stop-opacity=".92"/><stop offset=".5" stop-color="#2f453c" stop-opacity=".9"/><stop offset="1" stop-color="#b9d3d8" stop-opacity=".95"/></linearGradient>
<linearGradient id="floor" x1="0" y1="0" x2="0" y2="1"><stop offset="0" stop-color="#f08a6f" stop-opacity=".28"/><stop offset="1" stop-color="#f08a6f" stop-opacity="0"/></linearGradient>
</defs>
<rect width="1200" height="520" fill="url(#bg)"/>
<circle cx="1135" cy="41" r="28" fill="#f08a6f" fill-opacity="0.08"/><circle cx="216" cy="83" r="16" fill="#f08a6f" fill-opacity="0.11"/><circle cx="198" cy="194" r="41" fill="#f08a6f" fill-opacity="0.06"/><circle cx="148" cy="278" r="18" fill="#f08a6f" fill-opacity="0.10"/><circle cx="646" cy="96" r="36" fill="#f08a6f" fill-opacity="0.09"/><circle cx="780" cy="195" r="18" fill="#f08a6f" fill-opacity="0.13"/><circle cx="222" cy="183" r="22" fill="#f08a6f" fill-opacity="0.11"/><circle cx="402" cy="272" r="15" fill="#f08a6f" fill-opacity="0.13"/><circle cx="136" cy="160" r="31" fill="#f08a6f" fill-opacity="0.11"/><circle cx="890" cy="71" r="30" fill="#f08a6f" fill-opacity="0.08"/><circle cx="935" cy="292" r="14" fill="#f08a6f" fill-opacity="0.08"/><circle cx="323" cy="161" r="41" fill="#f08a6f" fill-opacity="0.07"/><circle cx="483" cy="253" r="39" fill="#f08a6f" fill-opacity="0.13"/><circle cx="768" cy="105" r="15" fill="#f08a6f" fill-opacity="0.06"/>
<rect x="0" y="470" width="1200" height="50" fill="url(#floor)"/>
<rect x="0" y="470" width="1200" height="2" fill="#f08a6f" fill-opacity=".6"/>
<path d="M309 236 L333 236 L333 264 C333 297 386 311 386 339 L386 460 Q386 470 376 470 L266 470 Q256 470 256 460 L256 339 C256 311 309 297 309 264 Z" fill="url(#glass)" stroke="#f08a6f" stroke-opacity=".5"/><rect x="307" y="228" width="28" height="14" rx="3" fill="#f08a6f"/><rect x="264" y="362" width="114" height="70" rx="3" fill="#f4ead6" fill-opacity=".92"/><rect x="270" y="378" width="102" height="3" fill="#16201c" fill-opacity=".7"/><rect x="278" y="397" width="86" height="3" fill="#16201c" fill-opacity=".45"/><path d="M266 334 L266 452" stroke="#fff" stroke-opacity=".18" stroke-width="5" stroke-linecap="round"/><path d="M492 264 L522 264 L522 289 C522 313 582 326 582 350 L582 460 Q582 470 572 470 L442 470 Q432 470 432 460 L432 350 C432 326 492 313 492 289 Z" fill="url(#glass)" stroke="#f08a6f" stroke-opacity=".5"/><rect x="490" y="256" width="34" height="14" rx="3" fill="#f08a6f"/><rect x="440" y="371" width="134" height="62" rx="3" fill="#f4ead6" fill-opacity=".92"/><rect x="446" y="385" width="122" height="3" fill="#16201c" fill-opacity=".7"/><rect x="454" y="402" width="106" height="3" fill="#16201c" fill-opacity=".45"/><path d="M442 346 L442 452" stroke="#fff" stroke-opacity=".18" stroke-width="5" stroke-linecap="round"/><path d="M680 218 L706 218 L706 248 C706 269 753 284 753 314 L753 460 Q753 470 743 470 L643 470 Q633 470 633 460 L633 314 C633 284 680 269 680 248 Z" fill="url(#glass)" stroke="#f08a6f" stroke-opacity=".5"/><rect x="678" y="210" width="30" height="14" rx="3" fill="#f08a6f"/><rect x="641" y="339" width="104" height="76" rx="3" fill="#f4ead6" fill-opacity=".92"/><rect x="647" y="356" width="92" height="3" fill="#16201c" fill-opacity=".7"/><rect x="655" y="377" width="76" height="3" fill="#16201c" fill-opacity=".45"/><path d="M643 309 L643 452" stroke="#fff" stroke-opacity=".18" stroke-width="5" stroke-linecap="round"/><path d="M864 261 L894 261 L894 286 C894 311 954 324 954 349 L954 460 Q954 470 944 470 L814 470 Q804 470 804 460 L804 349 C804 324 864 311 864 286 Z" fill="url(#glass)" stroke="#f08a6f" stroke-opacity=".5"/><rect x="862" y="253" width="34" height="14" rx="3" fill="#f08a6f"/><rect x="812" y="370" width="134" height="63" rx="3" fill="#f4ead6" fill-opacity=".92"/><rect x="818" y="383" width="122" height="3" fill="#16201c" fill-opacity=".7"/><rect x="826" y="401" width="106" height="3" fill="#16201c" fill-opacity=".45"/><path d="M814 345 L814 452" stroke="#fff" stroke-opacity=".18" stroke-width="5" stroke-linecap="round"/>
</svg>
