<svg xmlns="http://www.w3.org/2000/svg" viewBox="0 0 1200 520" role="img" aria-label="Иллюстрация: Red Decanter">
<defs>
<linearGradient id="bg" x1="0" y1="0" x2="1" y2="1"><stop offset="0" stop-color="#2a1511"/><stop offset="1" stop-color="#5a2a20"/></linearGradient>
<linearGradient id="glass" x1="0" y1="0" x2="1" y2="0"><stop offset="0" stop-color="#b9d3d8" stop-opacity=".92"/><stop offset=".5" stop-color="#5a2a20" stop-opacity=".9"/><stop offset="1" stop-color="#b9d3d8" stop-opacity=".95"/></linearGradient>
<linearGradient id="floor" x1="0" y1="0" x2="0" y2="1"><stop offset="0" stop-color="#e8553d" stop-opacity=".28"/><stop offset="1" stop-color="#e8553d" stop-opacity="0"/></linearGradient>
</defs>
<rect width="1200" height="520" fill="url(#bg)"/>
<circle cx="113" cy="213" r="21" fill="#e8553d" fill-opacity="0.06"/><circle cx="74" cy="158" r="45" fill="#e8553d" fill-opacity="0.07"/><circle cx="991" cy="268" r="41" fill="#e8553d" fill-opacity="0.12"/><circle cx="130" cy="122" r="45" fill="#e8553d" fill-opacity="0.06"/><circle cx="825" cy="70" r="43" fill="#e8553d" fill-opacity="0.11"/><circle cx="534" cy="287" r="42" fill="#e8553d" fill-opacity="0.13"/><circle cx="983" cy="205" r="47" fill="#e8553d" fill-opacity="0.06"/><circle cx="595" cy="259" r="20" fill="#e8553d" fill-opacity="0.12"/><circle cx="486" cy="116" r="19" fill="#e8553d" fill-opacity="0.12"/><circle cx="957" cy="49" r="35" fill="#e8553d" fill-opacity="0.11"/><circle cx="191" cy="186" r="31" fill="#e8553d" fill-opacity="0.10"/><circle cx="422" cy="252" r="15" fill="#e8553d" fill-opacity="0.09"/><circle cx="273" cy="126" r="16" fill="#e8553d" fill-opacity="0.11"/><circle cx="256" cy="264" r="31" fill="#e8553d" fill-opacity="0.07"/>
<rect x="0" y="470" width="1200" height="50" fill="url(#floor)"/>
<rect x="0" y="470" width="1200" height="2" fill="#e8553d" fill-opacity=".6"/>
<path d="M308 146 L334 146 L334 185 C334 250 377 269 377 308 L377 460 Q377 470 367 470 L275 470 Q265 470 265 460 L265 308 C265 269 308 250 308 185 Z" fill="url(#glass)" stroke="#e8553d" stroke-opacity=".5"/><rect x="306" y="138" width="30" height="14" rx="3" fill="#e8553d"/><rect x="273" y="340" width="96" height="97" rx="3" fill="#f4ead6" fill-opacity=".92"/><rect x="279" y="362" width="84" height="3" fill="#2a1511" fill-opacity=".7"/><rect x="287" y="389" width="68" height="3" fill="#2a1511" fill-opacity=".45"/><path d="M275 301 L275 452" stroke="#fff" stroke-opacity=".18" stroke-width="5" stroke-linecap="round"/><path d="M494 222 L520 222 L520 251 C520 271 567 286 567 316 L567 460 Q567 470 557 470 L457 470 Q447 470 447 460 L447 316 C447 286 494 271 494 251 Z" fill="url(#glass)" stroke="#e8553d" stroke-opacity=".5"/><rect x="492" y="214" width="30" height="14" rx="3" fill="#e8553d"/><rect x="455" y="341" width="104" height="75" rx="3" fill="#f4ead6" fill-opacity=".92"/><rect x="461" y="357" width="92" height="3" fill="#2a1511" fill-opacity=".7"/><rect x="469" y="378" width="76" height="3" fill="#2a1511" fill-opacity=".45"/><path d="M457 311 L457 452" stroke="#fff" stroke-opacity=".18" stroke-width="5" stroke-linecap="round"/><path d="M678 256 L708 256 L708 282 C708 307 768 320 768 346 L768 460 Q768 470 758 470 L628 470 Q618 470 618 460 L618 346 C618 320 678 307 678 282 Z" fill="url(#glass)" stroke="#e8553d" stroke-opacity=".5"/><rect x="676" y="248" width="34" height="14" rx="3" fill="#e8553d"/><rect x="626" y="367" width="134" height="64" rx="3" fill="#f4ead6" fill-opacity=".92"/><rect x="632" y="381" width="122" height="3" fill="#2a1511" fill-opacity=".7"/><rect x="640" y="399" width="106" height="3" fill="#2a1511" fill-opacity=".45"/><path d="M628 342 L628 452" stroke="#fff" stroke-opacity=".18" stroke-width="5" stroke-linecap="round"/><path d="M866 164 L892 164 L892 201 C892 262 935 280 935 317 L935 460 Q935 470 925 470 L833 470 Q823 470 823 460 L823 317 C823 280 866 262 866 201 Z" fill="url(#glass)" stroke="#e8553d" stroke-opacity=".5"/><rect x="864" y="156" width="30" height="14" rx="3" fill="#e8553d"/><rect x="831" y="348" width="96" height="92" rx="3" fill="#f4ead6" fill-opacity=".92"/><rect x="837" y="368" width="84" height="3" fill="#2a1511" fill-opacity=".7"/><rect x="845" y="393" width="68" height="3" fill="#2a1511" fill-opacity=".45"/><path d="M833 311 L833 452" stroke="#fff" stroke-opacity=".18" stroke-width="5" stroke-linecap="round"/>
</svg>
